<svg width="163" height="144" viewBox="0 0 163 144" fill="none" xmlns="http://www.w3.org/2000/svg">
<rect y="14" width="163" height="116" fill="#E91E63"/>
<path d="M47.168 72.208C47.168 65.552 48.608 59.632 51.488 54.448C54.368 49.2 58.368 45.136 63.488 42.256C68.672 39.312 74.528 37.84 81.056 37.84C89.056 37.84 95.904 39.952 101.6 44.176C107.296 48.4 111.104 54.16 113.024 61.456H94.976C93.632 58.64 91.712 56.496 89.216 55.024C86.784 53.552 84 52.816 80.864 52.816C75.808 52.816 71.712 54.576 68.576 58.096C65.44 61.616 63.872 66.32 63.872 72.208C63.872 78.096 65.44 82.8 68.576 86.32C71.712 89.84 75.808 91.6 80.864 91.6C84 91.6 86.784 90.864 89.216 89.392C91.712 87.92 93.632 85.776 94.976 82.96H113.024C111.104 90.256 107.296 96.016 101.6 100.24C95.904 104.4 89.056 106.48 81.056 106.48C74.528 106.48 68.672 105.04 63.488 102.16C58.368 99.216 54.368 95.152 51.488 89.968C48.608 84.784 47.168 78.864 47.168 72.208Z" fill="white"/>
</svg>
